<?xml version="1.0" encoding="utf-8"?>
<!-- Generator: Adobe Illustrator 19.0.0, SVG Export Plug-In . SVG Version: 6.00 Build 0)  -->
<svg version="1.1" id="Layer_1" xmlns="http://www.w3.org/2000/svg" xmlns:xlink="http://www.w3.org/1999/xlink" x="0px" y="0px"
   viewBox="0 0 612 792" style="enable-background:new 0 0 612 792;" xml:space="preserve">
<style type="text/css">
  .st0{fill:#E6E7E8;}
  .st1{fill:#010101;}
  .st2{fill:#00AEEF;stroke:#010101;stroke-width:10;stroke-miterlimit:10;}
</style>
<g>
  <g>
    <path id="XMLID_15_" class="st0" d="M345.7,549.4c-6.3,0-11.2-3.2-14.1-9.2c-5.7-11.8,3.1-20.2,7.4-24.2
      c8.8-8.3,19.6-11.1,30-13.8c1.2-0.3,2.4-0.6,3.6-1c1.1-0.3,2.3-0.6,3.4-0.9c0,0-73.7-32.2-80.5-35.2c-18-7.9-36.6-16-54.9-24
      c-13.8-6.1-20.4-18.4-15.8-29.4c3.3-7.9,10.8-12.7,19.8-12.7c4.2,0,8.6,1,13,2.9c18.5,8,37.2,16.2,55.3,24.1
      c2.2,1,4.4,1.9,6.6,2.9c-8.9-6.5-12.5-18.5-7.7-26.9c4.3-7.5,11-11.6,18.8-11.6c2.5,0,5.1,0.4,7.8,1.3c5,1.6,9.8,3.7,14.5,5.8
      c-9.6-6.8-13.2-17.8-8.5-27.3c3.5-7.1,10.9-11.5,19.3-11.5c2.9,0,5.8,0.5,8.7,1.5c1.2,0.4,2.4,0.9,3.6,1.4
      c-3.1-2.6-5.5-6.5-3.6-13c2.6-8.9,9.7-13.8,20.2-13.9l0.2,0c3.5,0,6.5,0.6,9.1,1.7c7.9,3.5,16,6.9,23.9,10.1
      c18.4,7.6,37.3,15.5,55,25.9c10.4,6.1,18.8,14.4,26.9,22.4c1.4,1.4,2.9,2.9,4.3,4.3l0.6,0.6c10.6,10.4,20.7,20.1,33.4,26.7
      c6.9,3.6,8.9,9.5,5.7,16.8c-12.1,27.6-26.5,60.2-40.5,92.5c-2.4,5.5-6.1,8.3-10.9,8.3c0,0,0,0,0,0c-2,0-4.1-0.5-6.5-1.5
      c-12.7-5.5-24.5-8.2-36.3-8.2c-9.8,0-19.7,2-29.3,5.9c-4.3,1.7-9,2.5-14.8,2.5c-3.7,0-7.3-0.3-10.8-0.6l-0.7-0.1
      c-3.4-0.3-6.8-0.4-10.1-0.4c-12,0-23.7,1.8-35.7,5.6C352.7,548.5,349.2,549.4,345.7,549.4z"/>
    <path id="XMLID_12_" class="st1" d="M392.7,339.9c2.4,0,4.9,0.3,7,1.3c26.2,11.7,53.5,21.1,78.4,35.8c11.7,6.9,20.7,16.7,30.3,26
      c10.8,10.5,21.6,21.1,35.2,28.2c4.8,2.5,5.5,5.7,3.4,10.3c-13.6,30.8-27.1,61.7-40.5,92.5c-1.6,3.6-3.6,5.3-6.3,5.3
      c-1.3,0-2.8-0.4-4.5-1.1c-12.7-5.5-25.4-8.6-38.3-8.6c-10.3,0-20.7,2-31.1,6.2c-4.1,1.7-8.5,2.2-13,2.2c-3.7,0-7.4-0.3-11-0.7
      c-3.5-0.3-7.1-0.5-10.6-0.5c-12.6,0-25,2-37.2,5.9c-2.9,0.9-5.9,1.8-8.8,1.8c-3.8,0-7.2-1.5-9.6-6.3c-3.7-7.8,0.9-13.3,6.3-18.4
      c8.9-8.4,20.3-10.6,31.5-13.6c4.3-1.2,8.6-2.3,12.9-3.4c0.1-1,0.2-1.9,0.3-2.9c-23.1-10.1-46.2-20.2-69.3-30.3
      c-25.1-11-50.2-21.9-75.2-32.9c-11.4-5-16.7-14.5-13.2-22.9c2.6-6.2,8.2-9.6,15.2-9.6c3.4,0,7.1,0.8,11,2.5
      c27.7,12,55.3,24.1,82.9,36.2c2.6,1.1,5.2,2.2,7.8,3.1c0.9,0.3,1.8,0.5,2.6,0.5c1.5,0,2.8-0.6,3.6-2.5c1.3-2.9-0.3-4.8-2.6-5.9
      c-4.7-2.3-9.5-4.5-14.3-6.7c-3.8-1.8-7.8-3.2-11.5-5.2c-7.9-4.6-11.9-14.7-8-21.6c3.4-6,8.5-9.1,14.5-9.1c2,0,4.1,0.3,6.2,1
      c8,2.6,15.5,6.6,23.3,9.7c1.7,0.7,3.7,1.8,5.5,1.8c1.4,0,2.7-0.6,3.6-2.6c2.3-4.7-2.3-5.8-5.2-7.4c-2.4-1.4-5.1-2.3-7.5-3.8
      c-8.4-5.3-11.5-14.2-7.9-21.6c2.7-5.5,8.3-8.7,14.8-8.7c2.3,0,4.6,0.4,7,1.2c5.3,1.9,10.3,4.4,15.6,6.4c1.4,0.6,2.9,1.2,4.3,1.2
      c1.5,0,2.8-0.7,3.7-2.9c1.4-3.6-1.5-4.9-4-6.3c-1.2-0.7-2.5-1.2-3.8-1.8c-5-2.3-11.6-3.8-9.3-11.5c2.1-7.4,8.1-10.2,15.4-10.2
      C392.6,339.9,392.7,339.9,392.7,339.9 M392.7,329.9l-0.2,0c-12.7,0.1-21.8,6.5-24.9,17.5c-0.7,2.5-0.9,4.7-0.8,6.6
      c-1-0.1-2-0.2-3-0.2c-10.3,0-19.4,5.5-23.8,14.3c-2.9,6-3.3,12.4-1.4,18.4c-2.6-0.7-5.3-1.1-7.8-1.1c-9.6,0-18.1,5.1-23.2,14.1
      c-3.1,5.4-3.6,11.8-1.9,17.9c-15.2-6.6-30.7-13.4-46-20c-5.1-2.2-10.1-3.3-15-3.3c-11.1,0-20.3,5.9-24.4,15.7
      c-5.7,13.6,2,28.7,18.3,35.9c18.4,8.1,37.1,16.3,55.1,24.2c6.7,2.9,13.4,5.8,20.1,8.8c15.7,6.9,31.4,13.7,47,20.6
      c-8.6,2.5-17.7,5.9-25.3,13.2c-4.3,4.1-15.7,14.8-8.4,29.9c3.7,7.7,10.3,12,18.6,12c4.2,0,8.1-1.1,11.8-2.2
      c11.5-3.6,22.7-5.4,34.2-5.4c3.2,0,6.5,0.1,9.7,0.4l0.7,0.1c3.6,0.3,7.3,0.6,11.2,0.6c6.4,0,11.9-1,16.7-2.9
      c9-3.6,18.2-5.5,27.4-5.5c11.1,0,22.3,2.5,34.3,7.8c3,1.3,5.8,1.9,8.5,1.9c3.9,0,11.2-1.5,15.5-11.3
      c14.1-32.4,28.4-64.9,40.5-92.5c4.3-9.7,1.3-18.4-8-23.2c-12-6.2-21.8-15.8-32.2-25.8l-0.6-0.6c-1.4-1.4-2.9-2.8-4.3-4.2
      c-8.3-8.2-16.9-16.7-27.8-23.1c-17.9-10.6-37.1-18.5-55.6-26.2c-7.8-3.2-16-6.6-23.8-10.1C400.6,330.6,396.9,329.9,392.7,329.9
      L392.7,329.9z"/>
  </g>
  <animateTransform 
                    attributeName="transform" 
                    type="translate" 
                    from="20 170" 
                    to="20 -200" 
                    dur="2s" 
                    repeatCount="indefinite" 
                    keySplines="0.42 0 0.58 1" 
                    keyTimes="0;1" 
                    calcMode="spline"/>

  
</g>
<path class="st2" d="M190.9,250.4l36.2,15.9l-33.9-130.8L74,199.1l31.9,14c-51.6,144.2-48.2,302.6,9.7,444.7
  c28.5-11.6,57.1-23.3,85.6-34.9C152.7,503.9,149.2,371.5,190.9,250.4z"/>
</svg>
